# xmcd CD database file
# Copyright (C) 1993-1998 Ti Kan
# 
# Track frame offsets:
#     182
#     35542
#     65867
#     95992
#     121400
#     138637
#     166650
#     181735
#     212837
#     232717
#     250242
#     273677
#     292547
#     316872
# 
# Disc length: 4565 seconds
# 
# Revision: 1
# Processed by: cddbd v1.4b41PL1 Copyright (c) Steve Scherf et al.
# Submitted via: DiscPlay 4.0.4
# 
DISCID=c911d30e
DTITLE=The Gibson Brothers - Het beste van The Gibson Brothers
DYEAR=1900
DGENRE=
TTITLE0=Cuba (maxi)
TTITLE1=Que sera mi vida (maxi)
TTITLE2=Better do it salsa (maxi)
TTITLE3=Ooh, what a life (maxi)
TTITLE4=Non-stop dance
TTITLE5=Come to America
TTITLE6=Mariana
TTITLE7=Latin America
TTITLE8=Heaven
TTITLE9=Baby, it's the singer
TTITLE10=My heart's beating wild
TTITLE11=Rio Brasilia
TTITLE12=West Indies (maxi)
TTITLE13=Dancin' the mambo
EXTD=
EXTT0=
EXTT1=
EXTT2=
EXTT3=
EXTT4=
EXTT5=
EXTT6=
EXTT7=
EXTT8=
EXTT9=
EXTT10=
EXTT11=
EXTT12=
EXTT13=
PLAYORDER=
